<svg xmlns="http://www.w3.org/2000/svg" width="694.6906" height="594.0215" viewBox="0 0 694.6906 594.0215"><defs><style>.a{fill:#241f20;}</style></defs><path class="a" d="M353.3718,594.0215c-80.22,0-204.4458-41.37-276.6641-118.0391C29.2336,425.583,1.2936,361.0293.0524,298.873c-1.4-70.081,25.2554-135.4375,77.0845-189.0029C142.4279,42.3906,240.9934,1.3311,340.7985.0361,342.6335.0117,344.4792,0,346.3122,0,452.1447,0,555.1159,39.4863,622.716,106.2148c22.7681,22.4747,40.5244,47.0918,52.7749,73.167,12.74,27.1162,19.2,55.1661,19.2,83.3692,0,39.3926-15.292,90.3271-41.9546,139.7441-28.0649,52.0147-65.6767,97.2442-105.9082,127.3555A324.787,324.787,0,0,1,353.3718,594.0215ZM346.3185,5.7549q-2.7216,0-5.4453.0351c-98.3051,1.2764-195.352,41.6807-259.6,108.0821C30.5339,166.3115,4.4377,230.2441,5.8063,298.7578,7.02,359.5049,34.3893,422.6631,80.8972,472.0361c40.7788,43.293,93.8169,70.3887,131.1289,85.4961,48.2382,19.5323,99.7563,30.7334,141.3457,30.7334A318.9986,318.9986,0,0,0,543.38,525.2432c39.5766-29.6221,76.6147-74.1856,104.291-125.48,26.2246-48.6045,41.2651-98.543,41.2651-137.0117,0-27.3506-6.2763-54.5772-18.6538-80.9219-11.9614-25.459-29.3252-49.5215-51.6089-71.5176C552.1306,44.627,450.6623,5.7549,346.3185,5.7549Z"/></svg>