<svg xmlns="http://www.w3.org/2000/svg" width="646.8106" height="553.1366" viewBox="0 0 646.8106 553.1366"><defs><style>.a{fill:#241f20;}</style></defs><path class="a" d="M329.0127,553.1366c-37.2222,0-77.1431-7.39-115.4473-21.3692a384.539,384.539,0,0,1-105.0747-58.4355c-32.5449-25.6719-58.4985-55.0166-77.1391-87.22C11.3184,351.5028.7866,315.2313.0488,278.3036c-1.3037-65.2647,23.5186-126.128,71.7832-176.01C132.6221,39.4667,224.39,1.2381,317.3115.0321,417.6523-1.2453,515.75,35.6854,579.7783,98.8885c21.2027,20.93,37.7383,43.8545,49.148,68.1387,11.8672,25.2588,17.8843,51.3877,17.8843,77.6611,0,72.542-37,149.7012-101.5127,211.6914-30.3389,29.1524-65.59,53.3789-101.9439,70.0606C404.7505,544.1542,366.2808,553.1366,329.0127,553.1366ZM322.4517,5.7538c-1.6934,0-3.3711.0107-5.066.0322-91.4213,1.1875-181.6709,38.7607-241.4174,100.51C28.7935,155.0516,4.53,214.4911,5.8027,278.1883c.7183,35.9434,10.99,71.2842,30.53,105.04,18.2749,31.57,43.7515,60.3652,75.7227,85.584a378.6916,378.6916,0,0,0,103.4834,57.5488c37.6787,13.751,76.9175,21.0195,113.4741,21.0195,36.4336,0,74.0962-8.8047,111.9414-26.1709,35.7739-16.416,70.4766-40.2685,100.356-68.98,63.39-60.9111,99.7451-136.5566,99.7451-207.541,0-25.4209-5.833-50.7256-17.3379-75.2138-11.12-23.668-27.2637-46.0381-47.9824-66.49C513.8574,41.9051,419.4854,5.7538,322.4517,5.7538Z"/></svg>