<svg xmlns="http://www.w3.org/2000/svg" width="421.5558" height="360.7987" viewBox="0 0 421.5558 360.7987"><defs><style>.a{fill:#241f20;}</style></defs><path class="a" d="M214.4152,360.7987c-48.6929,0-102.398-19.4317-143.6611-51.9805C26.0836,273.5819.9674,228.3826.0319,181.5457-.8192,138.9383,15.38,99.2108,46.8766,66.658,86.4894,25.7186,146.278.8074,206.8117.0223,272.16-.8381,336.0578,23.2537,377.777,64.4344c28.2315,27.8682,43.7788,61.708,43.7788,95.2881,0,47.3262-24.1118,97.6377-66.1533,138.0361a244.3947,244.3947,0,0,1-66.4019,45.6319C263.8288,354.9412,238.7345,360.7987,214.4152,360.7987ZM210.1588,5.7557c-1.0937,0-2.1777.0068-3.2724.0205C147.8527,6.5428,89.5822,30.7987,51.0128,70.661c-30.4077,31.4257-46.0468,69.73-45.227,110.77.9009,45.083,25.2393,88.7187,68.5327,122.8691,40.2813,31.7735,92.6538,50.7432,140.0967,50.7432,45.751,0,96.9658-22.9658,136.9995-61.4346,40.9185-39.3183,64.3862-88.1181,64.3862-133.8857,0-32.0283-14.94-64.4141-42.0669-91.1914C333.7843,29.0965,272.8371,5.7557,210.1588,5.7557Z"/></svg>